<?xml version="1.0" standalone="no"?>
<!DOCTYPE svg PUBLIC "-//W3C//DTD SVG 20010904//EN"
 "http://www.w3.org/TR/2001/REC-SVG-20010904/DTD/svg10.dtd">
<svg version="1.0" xmlns="http://www.w3.org/2000/svg"
 width="316.000000pt" height="316.000000pt" viewBox="0 0 316.000000 316.000000"
 preserveAspectRatio="xMidYMid meet">
<metadata>
Created by potrace 1.11, written by Peter Selinger 2001-2013
</metadata>
<g transform="translate(0.000000,316.000000) scale(0.100000,-0.100000)"
fill="#000000" stroke="none">
<path d="M1655 2994 c-16 -8 -44 -22 -60 -32 -17 -9 -72 -39 -123 -67 -62 -34
-92 -55 -92 -67 0 -10 -4 -18 -9 -18 -5 0 -12 -11 -15 -25 -6 -24 -8 -25 -29
-10 -32 22 -59 19 -124 -17 -75 -42 -141 -77 -230 -124 -39 -21 -76 -47 -81
-58 -33 -70 -42 -97 -37 -106 11 -17 -7 -11 -21 8 -22 30 -109 23 -169 -14
-28 -17 -95 -54 -150 -83 -235 -125 -278 -160 -252 -206 5 -11 15 -23 21 -27
6 -4 7 -8 1 -8 -5 0 6 -15 25 -34 19 -19 40 -41 46 -48 59 -74 208 -244 250
-285 38 -37 62 -53 86 -55 20 -2 27 -5 18 -9 -34 -14 -84 16 -148 91 -36 41
-93 107 -128 146 -35 39 -89 103 -121 142 -45 56 -59 68 -64 55 -11 -32 8 -81
49 -125 22 -24 68 -77 102 -118 76 -91 88 -104 170 -190 62 -65 67 -68 104
-65 22 3 42 8 45 12 3 5 26 22 51 38 25 17 50 33 55 38 71 54 104 75 109 70 3
-4 6 -1 6 4 0 6 23 25 51 43 28 17 60 40 72 50 11 11 24 20 28 20 10 0 60 65
63 82 9 49 17 57 44 47 27 -10 88 -5 94 9 2 4 23 21 48 37 25 17 51 35 57 42
7 6 29 21 50 34 21 13 43 28 50 35 7 6 32 24 57 40 25 16 53 44 63 64 26 52
34 61 47 53 23 -15 40 -11 85 20 25 17 48 35 49 39 2 4 8 6 13 2 5 -3 9 -1 9
4 0 6 19 21 43 35 23 14 56 37 72 51 17 14 33 26 36 26 4 0 25 25 48 55 29 38
40 62 36 74 -3 11 -35 49 -72 85 -36 36 -64 66 -61 66 2 0 -38 43 -90 95 -100
102 -117 109 -177 79z"/>
<path d="M2047 2544 c-31 -21 -57 -41 -57 -46 0 -5 -4 -6 -10 -3 -5 3 -10 2
-10 -3 0 -5 -21 -23 -47 -40 -50 -32 -133 -105 -133 -117 0 -15 -32 -37 -45
-31 -18 7 -66 -10 -80 -27 -5 -7 -34 -28 -62 -47 -29 -18 -53 -37 -53 -42 0
-4 -6 -8 -14 -8 -8 0 -16 -3 -18 -7 -1 -5 -23 -21 -48 -38 -24 -16 -52 -38
-62 -47 -10 -10 -22 -18 -27 -18 -12 0 -31 -56 -23 -66 4 -4 1 -4 -5 0 -8 5
-19 -5 -30 -28 -13 -28 -19 -33 -30 -24 -18 14 -86 4 -109 -16 -35 -31 -124
-97 -124 -91 0 3 -9 -3 -19 -12 -11 -10 -45 -36 -76 -58 -32 -22 -66 -48 -76
-57 -10 -10 -19 -15 -19 -12 0 3 -19 -10 -43 -30 -28 -23 -43 -44 -45 -61 -1
-14 -9 -33 -17 -41 -19 -19 -20 -78 -2 -96 8 -7 53 -60 102 -118 48 -58 97
-115 109 -126 11 -12 48 -54 81 -94 65 -78 104 -105 140 -96 12 3 51 32 86 65
118 109 137 126 168 149 16 13 51 43 76 68 26 24 49 44 51 44 10 0 53 53 49
60 -3 4 4 10 14 13 11 3 22 17 26 36 4 17 12 31 18 30 37 -4 59 6 108 52 30
28 99 92 153 143 103 95 155 148 169 172 4 8 15 14 23 14 9 0 21 6 28 13 7 6
53 48 102 92 178 161 204 188 204 210 0 26 -36 72 -180 228 -102 111 -144 147
-172 147 -7 0 -39 -16 -71 -36z m-611 -649 c43 -49 88 -99 99 -111 11 -11 49
-54 85 -94 105 -119 98 -114 145 -111 18 1 18 0 3 -9 -24 -15 -62 3 -101 47
-17 20 -39 44 -47 52 -16 16 -119 133 -176 200 -16 19 -41 46 -55 60 -14 14
-29 35 -33 46 -4 11 -5 17 -3 15 2 -3 39 -45 83 -95z"/>
<path d="M2459 2098 c-121 -114 -228 -214 -248 -230 -12 -10 -21 -25 -21 -33
0 -8 -9 -15 -20 -15 -21 0 -219 -175 -328 -289 -35 -36 -66 -78 -69 -93 -4
-23 -11 -28 -34 -28 -28 0 -42 -11 -139 -100 -9 -8 -58 -53 -110 -100 -51 -47
-125 -118 -165 -158 -66 -66 -72 -75 -70 -110 3 -46 8 -56 60 -114 48 -54 115
-132 183 -214 l51 -61 -43 2 c-24 1 -91 -4 -148 -12 -56 -8 -121 -15 -143 -17
-60 -6 -196 -35 -230 -50 -16 -8 -45 -17 -63 -21 -17 -4 -32 -10 -32 -15 0 -5
-10 -12 -21 -15 -12 -4 -32 -19 -44 -33 -21 -25 -22 -27 -5 -54 20 -34 77 -74
119 -83 17 -3 32 -5 34 -3 2 2 12 -3 21 -11 9 -8 36 -18 59 -22 23 -4 65 -11
92 -17 28 -6 79 -13 115 -17 36 -3 106 -11 155 -16 50 -6 146 -12 214 -14
l123 -3 49 -44 c77 -70 149 -102 239 -103 41 -1 78 2 81 7 3 5 0 32 -8 61 -19
75 -22 96 -15 101 4 2 30 7 58 10 46 4 53 3 57 -14 6 -22 27 -28 27 -8 0 18
29 -25 30 -43 0 -9 6 -22 14 -28 10 -9 15 -7 20 6 13 41 63 118 77 121 13 2
15 -7 14 -48 -2 -54 0 -55 40 -40 26 10 26 9 24 -24 -4 -44 1 -49 35 -36 15 5
45 12 67 15 22 3 53 12 69 20 17 9 30 13 30 11 0 -11 140 60 190 97 89 65 177
168 195 229 4 12 11 28 15 33 7 10 32 79 36 100 1 6 10 46 19 90 25 109 26
298 3 445 -10 63 -20 135 -23 160 -3 25 -10 79 -16 120 -6 41 -12 146 -12 232
-1 86 -4 153 -7 149 -5 -8 -45 -31 -54 -31 -3 0 -3 24 -1 53 3 28 1 48 -3 42
-7 -10 -31 -25 -82 -52 -22 -11 -26 -10 -35 7 -9 18 -130 149 -256 280 -53 54
-87 80 -106 80 -4 0 -33 -24 -64 -52z m-501 -785 c80 -90 99 -125 25 -48 -76
79 -153 169 -153 179 0 10 20 -11 128 -131z m662 -214 c-7 -11 -14 -18 -17
-15 -3 3 0 12 7 21 18 21 23 19 10 -6z m-28 -62 c-5 -7 -30 -75 -56 -152 -54
-160 -55 -166 -87 -295 -12 -52 -23 -96 -24 -97 0 -1 -11 0 -24 4 -14 3 -30
23 -44 52 -27 57 -148 179 -216 217 -28 16 -51 31 -51 34 0 3 12 20 27 37 l26
30 56 -30 c75 -40 117 -71 173 -130 41 -42 49 -47 54 -31 3 11 16 42 29 69 12
28 35 82 50 120 15 39 40 96 55 128 16 32 26 66 24 75 -5 14 -3 14 6 -1 7 -12
8 -22 2 -30z m-628 -442 c26 -40 23 -43 -35 -36 -14 2 -19 34 -8 47 16 20 24
18 43 -11z"/>
</g>
</svg>
